<?xml version="1.0" standalone="no"?>
<!DOCTYPE svg PUBLIC "-//W3C//DTD SVG 20010904//EN"
 "http://www.w3.org/TR/2001/REC-SVG-20010904/DTD/svg10.dtd">
<svg version="1.0" xmlns="http://www.w3.org/2000/svg"
 width="1065.000000pt" height="149.000000pt" viewBox="0 0 1065.000000 149.000000"
 preserveAspectRatio="xMidYMid meet">

<g transform="translate(0.000000,149.000000) scale(0.100000,-0.100000)"
fill="#000000" stroke="none">
<path d="M6820 1469 c-337 -87 -531 -387 -507 -784 13 -213 75 -363 202 -491
138 -138 279 -194 490 -194 141 0 220 16 322 66 187 90 313 260 358 483 13 64
16 119 13 235 -4 140 -7 158 -39 251 -62 180 -167 304 -324 381 -49 24 -121
51 -160 59 -100 21 -263 18 -355 -6z m342 -326 c107 -60 165 -178 175 -353 14
-242 -67 -415 -219 -466 -78 -26 -198 -16 -267 21 -130 71 -195 253 -171 483
14 129 41 195 110 264 72 72 122 89 237 84 68 -3 91 -9 135 -33z"/>
<path d="M8402 1471 c-188 -47 -350 -175 -431 -343 -55 -113 -81 -237 -81
-383 0 -359 167 -616 465 -716 62 -21 88 -24 230 -24 167 0 229 12 335 65 67
34 159 111 206 173 105 140 143 257 151 462 10 263 -50 438 -200 590 -93 93
-179 141 -311 175 -102 26 -261 26 -364 1z m319 -318 c148 -66 224 -273 189
-516 -21 -152 -82 -250 -185 -298 -50 -24 -73 -29 -140 -29 -187 0 -300 117
-327 340 -9 71 -9 116 0 188 23 179 96 286 224 328 60 19 181 13 239 -13z"/>
<path d="M5000 739 l0 -731 388 4 c423 5 444 8 560 68 148 77 221 206 210 374
-6 94 -40 166 -106 228 -48 45 -139 88 -187 88 -13 0 -27 5 -30 10 -3 6 2 10
13 10 10 0 46 14 80 31 115 57 177 159 175 289 -3 177 -119 303 -318 345 -54
11 -151 15 -427 15 l-358 0 0 -731z m662 427 c75 -36 103 -141 58 -214 -35
-56 -84 -72 -237 -72 l-133 0 0 156 0 156 138 -4 c109 -2 145 -7 174 -22z m27
-546 c75 -38 111 -106 98 -187 -8 -50 -31 -79 -80 -105 -37 -20 -61 -23 -199
-26 l-158 -4 0 171 0 171 150 0 c130 0 156 -3 189 -20z"/>
<path d="M9482 743 l3 -728 175 0 175 0 3 199 2 199 66 84 c36 46 69 81 73 78
3 -3 85 -131 182 -283 l175 -277 157 -3 157 -3 0 89 0 89 -201 308 c-110 170
-203 313 -205 320 -3 6 88 127 201 269 l205 259 0 63 0 64 -159 0 -159 0 -238
-305 c-131 -168 -242 -305 -246 -305 -5 0 -8 137 -8 305 l0 305 -180 0 -180 0
2 -727z"/>
</g>
</svg>
